<?xml version="1.0" encoding="utf-8"?>
<!-- Generator: Adobe Illustrator 23.1.0, SVG Export Plug-In . SVG Version: 6.00 Build 0)  -->
<svg version="1.1" id="Capa_1" xmlns="http://www.w3.org/2000/svg" xmlns:xlink="http://www.w3.org/1999/xlink" x="0px" y="0px"
	 viewBox="0 0 321 320" style="enable-background:new 0 0 321 320;" xml:space="preserve">
<style type="text/css">
	.st0{opacity:0.2;}
	.st1{fill:#7F7F7F;stroke:#FFFFFF;stroke-width:3;}
	.st2{opacity:0.3;}
	.st3{fill:#7C7C7C;stroke:#FFFFFF;stroke-width:3;}
	.st4{opacity:0.45;}
	.st5{fill:#606060;stroke:#FFFFFF;stroke-width:3;}
	.st6{opacity:0.65;}
	.st7{fill:#494949;stroke:#FFFFFF;stroke-width:3;}
	.st8{fill:#6B6B6B;stroke:#FFFFFF;stroke-width:3;}
	.st9{opacity:0.85;}
	.st10{fill:#333333;stroke:#FFFFFF;stroke-width:3;}
	.st11{fill:#474747;stroke:#FFFFFF;stroke-width:3;}
	.st12{fill:#FFFFFF;}
</style>
<g id="Layer_1">
	<g class="st0">
		<g>
			<path class="st1" d="M160.3,161.1L82.2,40.9c24.1-15.7,49.4-23.1,78.1-23.1V161.1z"/>
		</g>
	</g>
	<g class="st2">
		<g>
			<path class="st3" d="M160.3,161.1L18.7,183.5c-9-56.9,15.2-111.3,63.5-142.7L160.3,161.1z"/>
		</g>
	</g>
	<g class="st4">
		<g>
			<path class="st5" d="M160.3,161.1l-76,121.6c-36.6-22.9-58.9-56.5-65.6-99.2L160.3,161.1z"/>
		</g>
	</g>
	<g class="st6">
		<g>
			<path class="st7" d="M160.3,161.1l78.1,120.3c-48.3,31.4-105.3,31.9-154.1,1.3L160.3,161.1z"/>
		</g>
	</g>
	<g>
		<g>
			<path class="st8" d="M160.3,161.1l130-60.6c30.4,65.2,8.5,141.7-51.9,180.9L160.3,161.1z"/>
		</g>
	</g>
	<g class="st9">
		<g>
			<path class="st10" d="M160.3,161.1l76-121.6c24.4,15.2,41.8,35,54,61L160.3,161.1z"/>
		</g>
	</g>
	<g>
		<g>
			<path class="st11" d="M160.3,161.1V17.7c28.8,0,51.6,6.6,76,21.8L160.3,161.1z"/>
		</g>
	</g>
</g>
<g id="Layer_2">
	<circle class="st12" cx="160.2" cy="160.2" r="91.6"/>
</g>
</svg>
