<?xml version="1.0" encoding="utf-8"?>
<!-- Generator: Adobe Illustrator 23.1.0, SVG Export Plug-In . SVG Version: 6.00 Build 0)  -->
<svg version="1.1" id="Capa_1" xmlns="http://www.w3.org/2000/svg" xmlns:xlink="http://www.w3.org/1999/xlink" x="0px" y="0px"
	 viewBox="0 0 350 302" style="enable-background:new 0 0 350 302;" xml:space="preserve">
<style type="text/css">
	.st0{fill:#E3E3E3;}
	.st1{fill:#828282;}
	.st2{fill:none;stroke:#828282;stroke-width:2;}
</style>
<g id="Layer_1">
	<path class="st0" d="M46.1,56.5l-0.3,0.3l-0.5,0.1L45,56.8"/>
	<path class="st0" d="M54.6,65.9l-0.4-0.2L54,65.5l-0.2-0.3l-0.3-3l0.1-0.4l3.7-3.4l0.3-0.2l0.4,0.1l4.4,3.4l1.6,2l-6.2,1.9
		l-2.6,0.5L54.6,65.9z"/>
	<path class="st0" d="M208.4,282.8l-2.5,1l-1-2.1l-0.2-0.4l-0.3-0.3l-1-0.4l-0.7-0.1l-1.5,0.1l-1.3,0.2l-6.5-0.7l-7-3.7l-0.7-0.6
		l-6.9-0.8l-18.6-0.7l-0.7-0.1l-0.9-0.5L158,273l-0.1-0.5l-0.1-1l-0.2-0.4l-0.5-0.3l-0.5-0.2l-1.4-0.1l-0.8,0.1l-9.7,2.1l-0.5,0.2
		l-5.9-1.6l-8.9-9.8l-0.3-0.4l0.1-0.5l0.4-0.3l4.7-2l8.5,0.8l0.7,0.1l0.6,0.2l0.5,0.3l3.8,1.5l5.7,1.4l0.8-0.1l0.3-0.4v-0.5v-4.9
		l-0.3-0.4l-5.4-3.6l-0.7,0.1l-0.7,0.6l-1.1,2.3l-0.4,0.9l-0.7,0.7l-0.5,0.3h-0.6l-21.1-2.3l-1.3-0.3l-0.9-0.5l-0.6-0.7l-6.3-9.3
		l-2.7-4.4L100.7,227l-1.1-1l-0.5-0.2l-0.6-0.3l-0.5-0.1h-0.8l-1.3,0.2l-1.7,0.5h-0.7l-0.5-0.2l-0.4-0.3l-0.3-0.3l-3.2-4.5l-3-4.7
		l-0.2-0.4l-2.1-5.8l-3.6-9.7l-0.2-0.4l-0.3-0.4l-3.4-2.5l-3.6-0.6l-0.6-0.1l-0.4-0.3l-0.1-0.5l-2-12.8L66.7,171v-1.1l0.7-4.3
		l1.6-1.5l1.9,2.7l0.7,0.7l5.9,3.5l4.7,2.5l3.7,1.9l0.8,0.5l0.6,0.8l0.1,0.5l0.1,1.1v0.6l0.3,3.2l0.3,1.5l0.8,2.8l0.2,0.9l0.2,0.4
		l0.6,0.8l0.5-0.3l6.5-14l0.2-0.5l-0.1-0.5l-3.8-1.7l-0.5-0.2l-0.7-0.1l-0.5,0.2l-0.2,0.4l-2.3-0.2l-15.2-12.4l-1.9-2.7l0.4-1.5
		l0.1-1.1l0.1-1.2l-0.2-1.6l-0.2-1l-0.9-2.7l-0.7-1.3l-4.9-7.4l-0.4-0.4l-10.9-7.6l-8.5-11.4l-8.2-14.4L31,91.4l-4.3-7.2l-4-6.6
		l-0.2-0.4l0.1-0.6l0.2-0.4l0.3-0.4l0.4-0.9l0.2-1l-0.1-0.5l-2.1-8.2l-0.3-1L21,63.8l-0.9-1.6l-1.4-1.3L17,52.5l0.2-0.5l2.2-2.2
		l0.5-0.2l2-0.1l1-0.4l0.7-0.6l0.3-0.4l0.2-0.5l0.4-1.5l0.3-2.7l-0.6-5.7l5.2-2.7L48,36.6l0.6,0.1l0.5,0.2l3.6,2.4l3.1,2.3l1.3,0.7
		l1.7,0.6l1.5,0.1L73,41.3l4.4,3.1L79,45l16.5,4l18.1,8.1l10.3,4.7l25.3,9.2l1.7,0.5l0.7,0.2l2.7,0.2l12,0.9l2.4,0.1l1.4-0.1
		l2.5-0.4l1.2-0.3l2.8-0.8l1.6-0.6l4.8,2.4l1.8,1l-0.4-2.6V71l0.3-0.3l6.2-4.7l0.4-0.2l5.1-1.5h1.5l2,0.3L201,65l0.5,0.2l0.4,0.3
		l0.3,0.3l0.8,1.7l0.8,2.2l-0.1,0.6l-0.8,0.5l-0.2,0.5l0.2,0.4l0.5,0.2l1.1,0.4l3.5,0.4l7,0.1l0.4-0.3l-0.2-0.4l-1.7-1.7l-0.8-0.6
		l-0.5-0.2l-0.5-0.2l-1.2-0.3h-1.6l-2.1-0.2l-0.5-0.2l-0.9-0.5l-0.4-0.4l-0.3-0.3l-0.2-0.9l-0.1-2.8l0.1-0.5l0.3-0.4l2.9-1.9
		l0.9-0.4l0.5-0.2l11.9-4.1l0.7-0.1l5.5,1.4l1.7,0.5l1.6,0.6l1.2,0.2l1.4,0.2l2.1-0.2l1.6-0.5l13.4-2.2l4.8,3.5l4.2-1.4l1.8-1
		l0.4-0.3l1-1.1l1.5-1.7l2.1-2.5l2.5-3.4l0.4-0.9l1-1.6l0.4-0.3l1.4-0.7l0.6-0.1l4.8-1l0.5,0.2l1.2,1.5l0.2,0.4l0.6,0.7l0.4,0.3
		l7.6,2.2l1.3,0.2l2-0.2l0.6-0.1l2.2-0.7l1.5-0.7l1-0.5l1-0.9l1.2-1.5l0.8-1.2l0.5-0.9l0.5-1.4l0.4-1l0.3-2l0.4-0.9l0.8-0.6l0.4-0.3
		l0.4-0.1l0.6-0.1l2.1,0.2l1.5,0.3l4.8,1.8l11.9,6.7l0.4,0.3l4.3,4.3l2.9,4.8l0.6,0.7l0.7,1.1l0.5,0.9l-0.1,1.1l-2.2,6.3l-1,2.7
		l-0.6,1.3l-0.6,1.3l-0.9,1.7l-0.2,0.9v1.2l0.2,1.5l0.4,1.5l0.2,0.4l0.7,0.7l2.3,1.8l0.9,1.1l0.2,0.5l-0.3,5.5l-2.5,7.6l-1,2.1
		l-0.2,0.5l-0.2,1l0.6,5.7l0.1,0.5l0.4,0.9l0.5,0.8l1,1.1l0.7,1.2l0.3,1l0.1,1.1l-0.1,0.6l-1.8,9.6l-1.5,4l-0.7,1.2l-0.2,1.6
		l0.1,1.1l2.8,18.2l0.8,1.9l0.8,1.1l0.9,1l1.2,0.9l0.8,0.6l0.7,0.6l0.3,0.4l0.3,0.4l0.1,8.4l-0.2,1l-0.2,0.4l-1.2,1.4l-1.3,1.4
		l-1.2,0.9l-0.6,0.2l-0.7-0.1l-2.3-1.8l-0.4-2l1.6-1.2l0.7-0.7l0.2-0.5l0.2-1l0.6-4.4l-5.9-11.9l-0.2-0.5l-3-4.1l-0.3-0.4l-0.6-0.1
		l-0.6,0.1l-0.3,0.3l-8.3,13.6l-0.2,0.4l-0.3,1l-6.1,34l-0.3,0.3l-3.4,2.6l-0.5,0.2l-1,4.8l1,3.6v1.7l-0.1,3.5l-2.1,1.8l-1,0.5
		l-1.3,0.7l-0.9,0.6l-0.6,0.6l-0.5,0.8l-3.2,7.9v0.6l0.2,0.5l0.7,0.6l0.5,0.2l0.6,0.1l2.2,0.2l1.4-0.2l0.4-0.3l-0.2-0.4l-1.1-0.3
		l-0.5-0.2l-0.4-0.3l-0.6-0.8l-0.1-0.4l0.2-0.5l0.3-0.4l1.2-0.8l0.6-0.1l0.7,0.1l0.5,0.2l4.2,2.1l0.5,0.2l0.4,0.3l1.6,2.7l0.1,0.4
		l0.5,5.4l-0.2,0.5l-0.4,0.3l-2.3,0.6l-0.5,0.3l-0.3,0.3l-0.5,0.8l-0.2,0.4l-0.5,5.7l0.1,0.5l0.2,0.4l2.1,3.3l2.2,3.8l-0.6,4.5
		l-0.2,0.5l-0.2,0.2h-0.8l-0.6-0.1l-0.6-0.2l-1-0.4l-4.5-2.9l-0.4-0.3l-0.3-0.4l-0.2-0.5l-0.1-0.5l-5.6,3.1l-3.2,3.5l-7.9-7.1
		l-5.6-8.4l-1.2-3.7l0.1-0.5l0.2-0.4l4.2-5.4l0.3-0.4l0.4-0.3l1.2-0.3l1.5,0.1l0.6,0.2l0.8,0.5l0.6,1.3l0.3,0.9l-0.3,0.9l-0.7,0.7
		l-0.6,0.7L281,229l0.2,0.4l3.3,2.3l0.5,0.3l1.3,0.7l0.5,0.2l1.3,0.2h1.5l4-0.6l0.6-0.2l2.1-1.3l0.4-0.3l0.2-0.4l-6.6-7.7l-18.7-8.6
		l-1-0.4l-0.7-0.1l-0.7,0.1l-1.7,0.4l-4.1,1.7l-0.6,0.7l-0.2,0.4l-0.1,0.6l2,5l0.8,1.2l0.9,1.1l0.9,1.7l0.2,0.5l-0.1,0.5l-1.5,2.4
		l-1,0.5l-1.1,0.4l-2.9,0.8l-3.4,0.9l-0.6-0.1l-0.5-0.2l-0.3-0.3l-1.4-2.5l-0.1-0.5l0.1-0.5l0.3-0.3l0.5-0.2l0.6-0.1l0.6,0.2
		l0.4,0.4l-2-9l-4.8-2.4l-2.9-1.2l2.6,4.9l-0.7,4l-1.2,4.9l-2.8,1.7L243,234l-2.2,6.2l-0.2,1v0.6l0.1,0.5l0.1,0.5l1.6,2.9l0.3,1
		l0.1,0.5l-0.3,1.6l-0.8,2.3l-0.3,0.5l-0.3,0.3l-0.4,0.3l-1.5,0.7l-0.6,0.2L238,253l-2.2-0.2l-1.1-0.4l-6.2-3.1l-4.9-3.8l-0.8-0.7
		l-0.6-0.7l-0.1-0.5l-0.1-0.5l0.2-2.2l-0.4-1.4l-0.3-0.4l-0.9-1l-0.4-0.4l-0.7,0.1l-0.4,0.3l-0.7,0.7l-0.8,1.2l-0.2,0.4l-0.4,2.1
		v1.2v1.1l0.3,1l0.2,0.4l1.6,1.2l0.9,0.6l1,0.6l1.4,0.7l2.8,1.4l2.7,2.1l0.3,0.4l0.2,0.4l0.1,0.5l-0.3,0.4l-3.6,5.1l-4.3,4.9
		l-0.3,0.4l-4.1,8.8l-1,5.8l-0.2,0.5l-0.7,0.7l-1.2,0.7L208.4,282.8z"/>
	<path class="st0" d="M222,235.2l0.1-0.8l2.3-3.3l0.3-0.3l1.6-1.7l0.4-0.2l2.4,3l0.2,0.4l2.3,6.2l0.1,0.4v1.7l-0.2,0.8l-4.7,0.7
		L222,235.2z"/>
	<path class="st0" d="M218.4,257.9l-4.4,0.7l-3.7-5.5l4.7-4.7l6.7-6.1l0.3-0.3l0.6,0.1l0.5,0.5l3.8,7.2l0.2,0.8l-0.2,0.8l-2.8,7.1
		l-0.2,0.3l-0.6,0.5l-0.5,0.1L218.4,257.9z"/>
</g>
<g id="Layer_2">
	<circle class="st1" cx="84" cy="107" r="5"/>
	<circle class="st1" cx="274" cy="189" r="5"/>
	<path class="st2" d="M84,107c0,0,116-40,190,82"/>
	<g>
		<path d="M81.1,130l-1.5,4.7h-2l5-14.8h2.3l5.1,14.8h-2l-1.6-4.7H81.1z M85.9,128.5l-1.5-4.3c-0.3-1-0.5-1.8-0.8-2.7l0,0
			c-0.2,0.9-0.5,1.8-0.7,2.7l-1.5,4.3H85.9z"/>
	</g>
	<g>
		<path d="M269.7,200.3c0.8-0.2,2.2-0.3,3.5-0.3c1.9,0,3.1,0.3,4.1,1.1c0.8,0.6,1.2,1.5,1.2,2.6c0,1.4-0.9,2.7-2.5,3.3l0,0
			c1.4,0.4,3.1,1.5,3.1,3.7c0,1.3-0.5,2.2-1.3,3c-1,0.9-2.7,1.4-5.1,1.4c-1.3,0-2.3-0.1-3-0.2L269.7,200.3L269.7,200.3z
			 M271.6,206.4h1.7c2,0,3.2-1.1,3.2-2.5c0-1.7-1.3-2.4-3.3-2.4c-0.9,0-1.4,0.1-1.7,0.1L271.6,206.4L271.6,206.4z M271.6,213.5
			c0.4,0.1,0.9,0.1,1.6,0.1c2,0,3.8-0.7,3.8-2.9c0-2-1.7-2.9-3.8-2.9h-1.6V213.5z"/>
	</g>
</g>
</svg>
